<svg width="18" height="20" viewBox="0 0 18 20" fill="none" xmlns="http://www.w3.org/2000/svg">
<path fill-rule="evenodd" clip-rule="evenodd" d="M11.3973 0.462016C11.6734 0.615964 11.809 0.938385 11.7258 1.24339L9.90012 7.9375H16.5625C16.8363 7.9375 17.0839 8.09992 17.1931 8.351C17.3022 8.60208 17.2519 8.89396 17.0651 9.0941L7.44012 19.4066C7.2244 19.6377 6.87887 19.6919 6.60274 19.538C6.32661 19.384 6.19106 19.0616 6.27424 18.7566L8.09991 12.0625H1.43752C1.16375 12.0625 0.916083 11.9001 0.806976 11.649C0.69787 11.3979 0.748123 11.106 0.934915 10.9059L10.5599 0.593407C10.7756 0.362285 11.1212 0.308069 11.3973 0.462016Z" fill="#1CA66F"/>
</svg>
