<svg width="23" height="21" viewBox="0 0 23 21" fill="none" xmlns="http://www.w3.org/2000/svg">
<path d="M8.375 1.5C7.33947 1.5 6.5 2.33947 6.5 3.375C6.5 4.41053 7.33947 5.25 8.375 5.25H10.25V9.75H2.375C1.33947 9.75 0.5 8.91053 0.5 7.875V7.125C0.5 6.08947 1.33947 5.25 2.375 5.25H5.56833C5.20935 4.71371 5 4.0688 5 3.375C5 1.51104 6.51104 0 8.375 0C9.43523 0 10.3813 0.488876 11 1.2535C11.6187 0.488876 12.5648 0 13.625 0C15.489 0 17 1.51104 17 3.375C17 4.0688 16.7906 4.71371 16.4317 5.25H20.375C21.4105 5.25 22.25 6.08947 22.25 7.125V7.875C22.25 8.91053 21.4105 9.75 20.375 9.75H11.75V5.25H13.625C14.6605 5.25 15.5 4.41053 15.5 3.375C15.5 2.33947 14.6605 1.5 13.625 1.5C12.5895 1.5 11.75 2.33947 11.75 3.375V5.25H10.25V3.375C10.25 2.33947 9.41053 1.5 8.375 1.5Z" fill="white" fill-opacity="0.7"/>
<path d="M10.25 11.25H2V18C2 19.2426 3.00736 20.25 4.25 20.25H10.25V11.25Z" fill="white" fill-opacity="0.7"/>
<path d="M11.75 11.25V20.25H18.5C19.7426 20.25 20.75 19.2426 20.75 18V11.25H11.75Z" fill="white" fill-opacity="0.7"/>
</svg>
