<svg width="17" height="17" viewBox="0 0 17 17" fill="none" xmlns="http://www.w3.org/2000/svg">
<g clip-path="url(#clip0_91_41)">
<path d="M4.97961 0.059692C4.07521 0.102362 3.4576 0.246692 2.91767 0.458851C2.35888 0.676621 1.88526 0.968851 1.41402 1.44179C0.942784 1.91473 0.652594 2.38869 0.436354 2.94833C0.227084 3.48944 0.0853035 4.10756 0.0453533 5.01247C0.00540316 5.91738 -0.00343689 6.20825 0.000982703 8.51651C0.0054023 10.8248 0.0156023 11.1141 0.0594621 12.0209C0.102642 12.9251 0.246462 13.5426 0.458622 14.0826C0.676732 14.6414 0.968622 15.1149 1.44173 15.5863C1.91484 16.0577 2.38846 16.3472 2.94946 16.5638C3.49006 16.7727 4.10835 16.9152 5.01309 16.9548C5.91783 16.9944 6.20904 17.0036 8.51662 16.9992C10.8242 16.9947 11.1147 16.9845 12.0213 16.9415C12.928 16.8985 13.5422 16.7537 14.0824 16.5425C14.6412 16.3239 15.115 16.0325 15.5861 15.5593C16.0571 15.086 16.3472 14.6117 16.5632 14.0517C16.7727 13.5111 16.915 12.8928 16.9542 11.9888C16.9938 11.0815 17.0032 10.7918 16.9988 8.48387C16.9944 6.17595 16.984 5.88661 16.941 4.98017C16.898 4.07373 16.754 3.45816 16.542 2.91773C16.3235 2.35894 16.032 1.88583 15.559 1.41408C15.0861 0.942333 14.6115 0.652484 14.0517 0.436923C13.5107 0.227653 12.8928 0.0850233 11.988 0.0459232C11.0833 0.00682305 10.7921 -0.003207 8.48365 0.00121259C6.17522 0.00563219 5.88622 0.0154921 4.97961 0.059692ZM5.07888 15.4256C4.25013 15.3896 3.80014 15.2519 3.50026 15.1366C3.10314 14.9836 2.82026 14.7987 2.5214 14.5027C2.22254 14.2067 2.03894 13.9228 1.8839 13.5266C1.76745 13.2267 1.6272 12.7772 1.58844 11.9485C1.54628 11.0527 1.53744 10.7838 1.53251 8.51447C1.52758 6.24514 1.53625 5.97654 1.57552 5.08047C1.61088 4.2524 1.74943 3.8019 1.86452 3.50219C2.01752 3.10456 2.2018 2.82219 2.49845 2.5235C2.7951 2.22481 3.07815 2.04087 3.47476 1.88583C3.7743 1.76887 4.22379 1.62981 5.0522 1.59037C5.94861 1.54787 6.21721 1.53937 8.4862 1.53444C10.7552 1.52951 11.0245 1.53801 11.9212 1.57745C12.7493 1.61349 13.2 1.75068 13.4993 1.86645C13.8966 2.01945 14.1793 2.20322 14.478 2.50038C14.7767 2.79754 14.9608 3.07957 15.1159 3.47703C15.233 3.77572 15.372 4.22503 15.4111 5.05395C15.4538 5.95036 15.4635 6.21913 15.4676 8.48795C15.4717 10.7568 15.4637 11.0262 15.4244 11.922C15.3882 12.7507 15.2508 13.2009 15.1354 13.5011C14.9824 13.898 14.798 14.1811 14.5011 14.4796C14.2043 14.7781 13.9216 14.9621 13.5248 15.1171C13.2256 15.2339 12.7756 15.3733 11.9479 15.4127C11.0515 15.4549 10.7829 15.4637 8.51305 15.4687C6.24321 15.4736 5.97546 15.4644 5.07905 15.4256M12.0083 3.95728C12.0086 4.15903 12.0688 4.35615 12.1811 4.52371C12.2935 4.69127 12.453 4.82174 12.6396 4.89862C12.8261 4.9755 13.0312 4.99534 13.229 4.95562C13.4268 4.91591 13.6084 4.81843 13.7508 4.67551C13.8932 4.53258 13.99 4.35064 14.029 4.1527C14.068 3.95475 14.0474 3.74968 13.9699 3.56344C13.8923 3.37719 13.7612 3.21813 13.5933 3.10637C13.4253 2.99462 13.228 2.93518 13.0262 2.93558C12.7558 2.93612 12.4966 3.04406 12.3057 3.23566C12.1148 3.42725 12.0078 3.68682 12.0083 3.95728ZM4.13555 8.50869C4.14031 10.9193 6.09803 12.869 8.50812 12.8644C10.9182 12.8598 12.8693 10.9023 12.8647 8.49169C12.8601 6.08109 10.9019 4.13085 8.49147 4.13561C6.08104 4.14037 4.13096 6.09843 4.13555 8.50869ZM5.66657 8.50563C5.66547 7.94524 5.83056 7.39711 6.14097 6.93054C6.45139 6.46398 6.89318 6.09994 7.41049 5.88447C7.9278 5.66899 8.49739 5.61175 9.04722 5.71999C9.59706 5.82823 10.1025 6.09708 10.4995 6.49255C10.8965 6.88803 11.1674 7.39235 11.2778 7.94176C11.3882 8.49116 11.3332 9.06097 11.1198 9.57913C10.9064 10.0973 10.5441 10.5405 10.0788 10.8528C9.61344 11.165 9.06596 11.3323 8.50557 11.3334C8.13348 11.3342 7.76487 11.2617 7.4208 11.12C7.07674 10.9783 6.76396 10.7702 6.50032 10.5076C6.23669 10.245 6.02736 9.93305 5.88431 9.58955C5.74125 9.24605 5.66727 8.87773 5.66657 8.50563Z" fill="white" fill-opacity="0.4"/>
</g>
<defs>
<clipPath id="clip0_91_41">
<rect width="17" height="17" fill="white"/>
</clipPath>
</defs>
</svg>
