<svg width="18" height="20" viewBox="0 0 18 20" fill="none" xmlns="http://www.w3.org/2000/svg">
<path fill-rule="evenodd" clip-rule="evenodd" d="M4.87668 4.5H8.31035L8.3125 4.5H11.4107C13.1172 4.50246 14.4999 5.88663 14.4999 7.59375V16.1875C16.0187 16.1875 17.2499 14.9563 17.2499 13.4375V4.5992C17.2499 3.21925 16.2189 2.02188 14.8079 1.90477C14.6027 1.88774 14.3972 1.87211 14.1913 1.85786C13.7331 0.976768 12.8118 0.375 11.75 0.375H10.375C9.3132 0.375 8.39196 0.976762 7.9337 1.85785C7.72773 1.8721 7.52214 1.88774 7.31695 1.90477C5.93985 2.01907 4.9247 3.1623 4.87668 4.5ZM10.375 1.75C9.61561 1.75 9 2.36561 9 3.125H13.125C13.125 2.36561 12.5094 1.75 11.75 1.75H10.375Z" fill="white"/>
<path fill-rule="evenodd" clip-rule="evenodd" d="M0.75 7.59375C0.75 6.64451 1.51951 5.875 2.46875 5.875H11.4062C12.3555 5.875 13.125 6.64451 13.125 7.59375V17.9062C13.125 18.8555 12.3555 19.625 11.4062 19.625H2.46875C1.51951 19.625 0.75 18.8555 0.75 17.9062V7.59375ZM3.5 10C3.5 9.6203 3.8078 9.3125 4.1875 9.3125H4.19438C4.57407 9.3125 4.88188 9.6203 4.88188 10V10.0069C4.88188 10.3866 4.57407 10.6944 4.19438 10.6944H4.1875C3.8078 10.6944 3.5 10.3866 3.5 10.0069V10ZM5.5625 10C5.5625 9.6203 5.8703 9.3125 6.25 9.3125H9.6875C10.0672 9.3125 10.375 9.6203 10.375 10C10.375 10.3797 10.0672 10.6875 9.6875 10.6875H6.25C5.8703 10.6875 5.5625 10.3797 5.5625 10ZM3.5 12.75C3.5 12.3703 3.8078 12.0625 4.1875 12.0625H4.19438C4.57407 12.0625 4.88188 12.3703 4.88188 12.75V12.7569C4.88188 13.1366 4.57407 13.4444 4.19438 13.4444H4.1875C3.8078 13.4444 3.5 13.1366 3.5 12.7569V12.75ZM5.5625 12.75C5.5625 12.3703 5.8703 12.0625 6.25 12.0625H9.6875C10.0672 12.0625 10.375 12.3703 10.375 12.75C10.375 13.1297 10.0672 13.4375 9.6875 13.4375H6.25C5.8703 13.4375 5.5625 13.1297 5.5625 12.75ZM3.5 15.5C3.5 15.1203 3.8078 14.8125 4.1875 14.8125H4.19438C4.57407 14.8125 4.88188 15.1203 4.88188 15.5V15.5069C4.88188 15.8866 4.57407 16.1944 4.19438 16.1944H4.1875C3.8078 16.1944 3.5 15.8866 3.5 15.5069V15.5ZM5.5625 15.5C5.5625 15.1203 5.8703 14.8125 6.25 14.8125H9.6875C10.0672 14.8125 10.375 15.1203 10.375 15.5C10.375 15.8797 10.0672 16.1875 9.6875 16.1875H6.25C5.8703 16.1875 5.5625 15.8797 5.5625 15.5Z" fill="white"/>
</svg>
