<svg width="18" height="20" viewBox="0 0 18 20" fill="none" xmlns="http://www.w3.org/2000/svg">
<path fill-rule="evenodd" clip-rule="evenodd" d="M8.99991 0.400024C5.02346 0.400024 1.79991 3.62357 1.79991 7.60002C1.79991 9.86398 1.25543 11.9981 0.291076 13.8812C0.163047 14.1312 0.159072 14.4266 0.280328 14.68C0.401585 14.9333 0.634168 15.1155 0.909177 15.1726C2.1904 15.4387 3.49413 15.6427 4.81706 15.7817C5.00988 17.9224 6.809 19.6 8.99995 19.6C11.1909 19.6 12.99 17.9224 13.1828 15.7817C14.5057 15.6427 15.8094 15.4387 17.0906 15.1726C17.3657 15.1155 17.5982 14.9333 17.7195 14.68C17.8407 14.4266 17.8368 14.1312 17.7087 13.8812C16.7444 11.9981 16.1999 9.86398 16.1999 7.60002C16.1999 3.62357 12.9764 0.400024 8.99991 0.400024ZM6.65911 15.932C7.43368 15.9771 8.21416 16 8.99991 16C9.78569 16 10.5662 15.9771 11.3408 15.932C11.0988 17.0015 10.1426 17.8 8.99995 17.8C7.85727 17.8 6.90111 17.0015 6.65911 15.932Z" fill="#EBEBEB"/>
</svg>
