<svg width="9" height="10" viewBox="0 0 9 10" fill="none" xmlns="http://www.w3.org/2000/svg">
<path d="M5.02505 1.32499C5.02505 1.03504 4.79 0.799988 4.50005 0.799988C4.2101 0.799988 3.97505 1.03504 3.97505 1.32499V4.47499H0.825049C0.535099 4.47499 0.300049 4.71004 0.300049 4.99999C0.300049 5.28994 0.535099 5.52499 0.825049 5.52499L3.97505 5.52499V8.67499C3.97505 8.96494 4.2101 9.19999 4.50005 9.19999C4.79 9.19999 5.02505 8.96494 5.02505 8.67499V5.52499L8.17505 5.52499C8.465 5.52499 8.70005 5.28994 8.70005 4.99999C8.70005 4.71004 8.465 4.47499 8.17505 4.47499H5.02505V1.32499Z" fill="#1CA66F"/>
</svg>
