<svg width="14" height="17" viewBox="0 0 14 17" fill="none" xmlns="http://www.w3.org/2000/svg">
<path d="M8.5867 1.62108C8.64371 1.33839 8.51455 1.05033 8.27201 0.919272C8.02948 0.788213 7.73431 0.846969 7.55287 1.06242L0.752872 9.13742C0.595089 9.32479 0.555688 9.59319 0.652273 9.82271C0.748858 10.0522 0.963387 10.2 1.20002 10.2H6.45782L5.41334 15.3789C5.35632 15.6616 5.48549 15.9497 5.72802 16.0807C5.97055 16.2118 6.26573 16.153 6.44716 15.9376L13.2472 7.86258C13.4049 7.67522 13.4443 7.40682 13.3478 7.17729C13.2512 6.94777 13.0366 6.8 12.8 6.8H7.54221L8.5867 1.62108Z" fill="#EBEBEB"/>
</svg>
