<svg width="19" height="21" viewBox="0 0 19 21" fill="none" xmlns="http://www.w3.org/2000/svg">
<path fill-rule="evenodd" clip-rule="evenodd" d="M8.35005 2.70002C4.85685 2.70002 2.02505 5.65495 2.02505 9.30002C2.02505 12.9451 4.85685 15.9 8.35005 15.9C10.0969 15.9 11.677 15.1623 12.8225 13.9669C13.968 12.7716 14.675 11.1228 14.675 9.30002C14.675 5.65495 11.8433 2.70002 8.35005 2.70002ZM0.300049 9.30002C0.300049 4.66083 3.90416 0.900024 8.35005 0.900024C12.7959 0.900024 16.4001 4.66083 16.4001 9.30002C16.4001 11.2951 15.7327 13.1287 14.6195 14.5693L18.4474 18.5636C18.7843 18.9151 18.7843 19.4849 18.4474 19.8364C18.1106 20.1879 17.5645 20.1879 17.2277 19.8364L13.3998 15.8421C12.0192 17.0037 10.2619 17.7 8.35005 17.7C3.90416 17.7 0.300049 13.9392 0.300049 9.30002Z" fill="white" fill-opacity="0.5"/>
</svg>
