<svg width="19" height="19" viewBox="0 0 19 19" fill="none" xmlns="http://www.w3.org/2000/svg">
<path fill-rule="evenodd" clip-rule="evenodd" d="M9.77075 0.833328C4.83471 0.833328 0.833252 4.83478 0.833252 9.77083C0.833252 14.7069 4.83471 18.7083 9.77075 18.7083C14.7068 18.7083 18.7083 14.7069 18.7083 9.77083C18.7083 4.83478 14.7068 0.833328 9.77075 0.833328ZM7.3645 6.33333C6.86888 6.33333 6.60526 6.71724 6.50652 6.91473C6.38721 7.15335 6.33325 7.43489 6.33325 7.70833C6.33325 7.98176 6.38721 8.2633 6.50652 8.50192C6.60526 8.69942 6.86888 9.08333 7.3645 9.08333C7.86012 9.08333 8.12374 8.69942 8.22249 8.50192C8.3418 8.2633 8.39575 7.98176 8.39575 7.70833C8.39575 7.43489 8.3418 7.15335 8.22249 6.91473C8.12374 6.71724 7.86012 6.33333 7.3645 6.33333ZM11.319 6.91473C11.4178 6.71724 11.6814 6.33333 12.177 6.33333C12.6726 6.33333 12.9362 6.71724 13.035 6.91473C13.1543 7.15335 13.2083 7.43489 13.2083 7.70833C13.2083 7.98176 13.1543 8.2633 13.035 8.50192C12.9362 8.69942 12.6726 9.08333 12.177 9.08333C11.6814 9.08333 11.4178 8.69942 11.319 8.50192C11.1997 8.2633 11.1458 7.98176 11.1458 7.70833C11.1458 7.43489 11.1997 7.15335 11.319 6.91473ZM13.1737 13.1738C13.4422 12.9053 13.4422 12.47 13.1737 12.2015C12.9052 11.933 12.4699 11.933 12.2014 12.2015C10.859 13.544 8.6825 13.544 7.34007 12.2015C7.07159 11.933 6.63629 11.933 6.3678 12.2015C6.09932 12.47 6.09932 12.9053 6.3678 13.1738C8.2472 15.0532 11.2943 15.0532 13.1737 13.1738Z" fill="white"/>
</svg>
