<svg width="22" height="19" viewBox="0 0 22 19" fill="none" xmlns="http://www.w3.org/2000/svg">
<path fill-rule="evenodd" clip-rule="evenodd" d="M0.5 7.33233V9.125C0.5 10.1605 1.33947 11 2.375 11H19.625C20.6605 11 21.5 10.1605 21.5 9.125V7.33233C21.5 6.61619 21.2438 5.92368 20.7778 5.37995L17.4929 1.54763C16.923 0.882688 16.0909 0.5 15.2151 0.5H6.78485C5.90908 0.5 5.07703 0.882688 4.50708 1.54763L1.22223 5.37995C0.756177 5.92368 0.5 6.6162 0.5 7.33233ZM6.78485 2C6.34697 2 5.93094 2.19134 5.64597 2.52381L2.88067 5.75H6.04584C7.0489 5.75 7.98559 6.2513 8.54199 7.0859L8.70609 7.33205C8.98429 7.74935 9.45263 8 9.95416 8H12.0458C12.5474 8 13.0157 7.74935 13.2939 7.33205L13.458 7.0859C14.0144 6.2513 14.9511 5.75 15.9542 5.75H19.1193L16.354 2.52381C16.0691 2.19134 15.653 2 15.2151 2H6.78485Z" fill="white" fill-opacity="0.7"/>
<path d="M1.8125 12.5C1.08763 12.5 0.5 13.0876 0.5 13.8125V15.5C0.5 17.1569 1.84315 18.5 3.5 18.5H18.5C20.1569 18.5 21.5 17.1569 21.5 15.5V13.8125C21.5 13.0876 20.9124 12.5 20.1875 12.5H15.9542C14.9511 12.5 14.0144 13.0013 13.458 13.8359L13.2939 14.0821C13.0157 14.4993 12.5474 14.75 12.0458 14.75H9.95416C9.45263 14.75 8.98429 14.4993 8.70609 14.0821L8.54199 13.8359C7.98559 13.0013 7.0489 12.5 6.04584 12.5H1.8125Z" fill="white" fill-opacity="0.7"/>
</svg>
