<svg width="23" height="17" viewBox="0 0 23 17" fill="none" xmlns="http://www.w3.org/2000/svg">
<g clip-path="url(#clip0_95_48)">
<path fill-rule="evenodd" clip-rule="evenodd" d="M19.6458 16.1082C20.7863 15.944 21.7094 15.0682 21.9267 13.9188C22.1439 12.6599 22.3611 10.7989 22.4154 8.50002C22.4154 6.20116 22.1439 4.34017 21.9267 3.08127C21.7094 1.93184 20.7863 1.05608 19.6458 0.891878C17.7994 0.618204 14.8669 0.289795 11.5 0.289795C8.13306 0.289795 5.14625 0.618204 3.35417 0.891878C2.21375 1.05608 1.29056 1.93184 1.07334 3.08127C0.856115 4.34017 0.638893 6.20116 0.638893 8.50002C0.638893 10.7989 0.856115 12.6599 1.07334 13.9188C1.29056 15.0682 2.21375 15.944 3.35417 16.1082C5.20056 16.3818 8.18736 16.7102 11.5 16.7102C14.8669 16.7102 17.8538 16.3818 19.6458 16.1082ZM15.8444 8.50002L9.32778 4.66858V12.3315L15.8444 8.50002Z" fill="white" fill-opacity="0.4"/>
</g>
<defs>
<clipPath id="clip0_95_48">
<rect width="23" height="17" fill="white"/>
</clipPath>
</defs>
</svg>
