<svg width="11" height="9" viewBox="0 0 11 9" fill="black" xmlns="http://www.w3.org/2000/svg">
<path fill-rule="evenodd" clip-rule="evenodd" d="M0.826172 4.32608C0.826172 3.91187 1.16196 3.57608 1.57617 3.57608H8.21409L6.05634 1.61671C5.75776 1.32961 5.74845 0.854829 6.03555 0.556249C6.32264 0.257671 6.79742 0.248361 7.096 0.535456L10.596 3.78546C10.7431 3.92686 10.8262 4.12207 10.8262 4.32608C10.8262 4.53009 10.7431 4.7253 10.596 4.86671L7.096 8.11671C6.79742 8.4038 6.32264 8.39449 6.03555 8.09591C5.74845 7.79733 5.75776 7.32255 6.05634 7.03546L8.21409 5.07608H1.57617C1.16196 5.07608 0.826172 4.74029 0.826172 4.32608Z" fill="white"/>
</svg>
