<svg width="17" height="17" viewBox="0 0 17 17" fill="none" xmlns="http://www.w3.org/2000/svg">
<path fill-rule="evenodd" clip-rule="evenodd" d="M2.48959 2.48959C4.08365 0.895533 6.24566 0 8.5 0C10.7543 0 12.9163 0.895533 14.5104 2.48959C16.1045 4.08365 17 6.24566 17 8.5C17 10.7543 16.1045 12.9163 14.5104 14.5104C12.9163 16.1045 10.7543 17 8.5 17C8.89145 17 9.2735 16.9642 9.65063 16.9132V10.7529H11.8503L12.1957 8.51834H9.65018V7.29703C9.65018 6.36874 9.9535 5.54558 10.8218 5.54558H12.2172V3.5955L12.204 3.59372C11.9537 3.55987 11.4363 3.48992 10.4738 3.48992C8.42797 3.48992 7.22858 4.57032 7.22858 7.03174V8.51834H5.1255V10.7529H7.22858V16.8949C7.64508 16.9575 8.06695 17 8.5 17C6.24566 17 4.08365 16.1045 2.48959 14.5104C0.895533 12.9163 0 10.7543 0 8.5C0 6.24566 0.895533 4.08365 2.48959 2.48959Z" fill="white" fill-opacity="0.4"/>
</svg>
