<svg width="18" height="18" viewBox="0 0 18 18" fill="none" xmlns="http://www.w3.org/2000/svg">
<mask id="mask0_341_89" style="mask-type:luminance" maskUnits="userSpaceOnUse" x="0" y="0" width="18" height="18">
<path d="M17.8261 0H0V17.8261H17.8261V0Z" fill="white"/>
</mask>
<g mask="url(#mask0_341_89)">
<path d="M17.4696 9.11564C17.4696 8.48362 17.4129 7.87593 17.3076 7.29248H8.91309V10.7402H13.7099C13.5033 11.8544 12.8754 12.7983 11.9314 13.4304V15.6667H14.8119C16.4973 14.1151 17.4696 11.83 17.4696 9.11564Z" fill="#4285F4"/>
<path d="M8.91281 17.8261C11.3193 17.8261 13.3369 17.0279 14.8115 15.6667L11.931 13.4304C11.133 13.9651 10.112 14.2811 8.91281 14.2811C6.59132 14.2811 4.62643 12.7132 3.92551 10.6065H0.947754V12.9158C2.4144 15.8288 5.42861 17.8261 8.91281 17.8261Z" fill="#34A853"/>
<path d="M3.92575 10.6065C3.74749 10.0717 3.64624 9.5005 3.64624 8.91304C3.64624 8.32558 3.74749 7.75434 3.92575 7.21956V4.91028H0.947991C0.3444 6.11354 0 7.47483 0 8.91304C0 10.3512 0.3444 11.7125 0.947991 12.9158L3.92575 10.6065Z" fill="#FBBC04"/>
<path d="M8.91281 3.54498C10.2213 3.54498 11.3962 3.99465 12.32 4.87784L14.8764 2.3214C13.3329 0.883193 11.3152 0 8.91281 0C5.42861 0 2.4144 1.99732 0.947754 4.91028L3.92551 7.21957C4.62643 5.11288 6.59131 3.54498 8.91281 3.54498Z" fill="#E94235"/>
</g>
</svg>
