<svg width="43" height="18" viewBox="0 0 43 18" fill="none" xmlns="http://www.w3.org/2000/svg">
<path d="M26.6072 14.1045C21.7531 8.19195 14.397 9.51061 12.3097 12.1622C11.1891 14.1755 9.02465 15.5676 6.55932 15.5676C2.93671 15.5676 0 12.6272 0 9C0 5.37283 2.93671 2.43243 6.55932 2.43243C9.02464 2.43243 11.1891 3.82455 12.3097 5.83783C14.397 8.48939 21.7531 9.80805 26.6072 3.89549C26.7544 3.68185 26.9106 3.47489 27.0752 3.27516C27.4742 2.79103 27.9228 2.34938 28.4133 1.95802C29.0485 1.45109 29.7539 1.02852 30.5125 0.707265C31.5879 0.251841 32.7702 0 34.0113 0C38.9756 0 43 4.02944 43 9C43 13.9706 38.9756 18 34.0113 18C32.7702 18 31.5879 17.7482 30.5125 17.2927C29.7539 16.9715 29.0485 16.5489 28.4133 16.042C27.9228 15.6506 27.4742 15.209 27.0752 14.7248C26.9106 14.5251 26.7544 14.3181 26.6072 14.1045Z" fill="#1CA66F"/>
</svg>
