<svg width="22" height="21" viewBox="0 0 22 21" fill="none" xmlns="http://www.w3.org/2000/svg">
<path fill-rule="evenodd" clip-rule="evenodd" d="M14.75 0C11.0221 0 8 3.02208 8 6.75C8 7.14372 8.03379 7.53016 8.0988 7.90639C8.16599 8.29527 8.06678 8.62255 7.87767 8.81167L1.37868 15.3107C0.816071 15.8733 0.5 16.6363 0.5 17.432V20.25C0.5 20.6642 0.835786 21 1.25 21H5C5.41421 21 5.75 20.6642 5.75 20.25V18.75H7.25C7.66421 18.75 8 18.4142 8 18V16.5H9.5C9.69891 16.5 9.88968 16.421 10.0303 16.2803L12.6883 13.6223C12.8774 13.4332 13.2047 13.334 13.5936 13.4012C13.9698 13.4662 14.3563 13.5 14.75 13.5C18.4779 13.5 21.5 10.4779 21.5 6.75C21.5 3.02208 18.4779 0 14.75 0ZM14.75 3C14.3358 3 14 3.33579 14 3.75C14 4.16421 14.3358 4.5 14.75 4.5C15.9926 4.5 17 5.50736 17 6.75C17 7.16421 17.3358 7.5 17.75 7.5C18.1642 7.5 18.5 7.16421 18.5 6.75C18.5 4.67893 16.8211 3 14.75 3Z" fill="white" fill-opacity="0.4"/>
</svg>
