<svg aria-hidden="true" style="position: absolute; width: 0; height: 0; overflow: hidden;" version="1.1" xmlns="http://www.w3.org/2000/svg" xmlns:xlink="http://www.w3.org/1999/xlink">
<defs>
<symbol id="icon-downward-arrow" viewBox="0 0 43 32">
<path fill="#ebebeb" style="fill: var(--color1, #ebebeb)" d="M0.982 4.093c1.274-1.225 3.3-1.185 4.525 0.089l15.827 16.801 15.827-16.801c1.225-1.274 3.251-1.314 4.525-0.089s1.314 3.251 0.089 4.525l-18.133 19.2c-0.603 0.627-1.436 0.982-2.307 0.982s-1.703-0.355-2.307-0.982l-18.133-19.2c-1.225-1.274-1.185-3.3 0.089-4.525z"></path>
</symbol>
<symbol id="icon-arrow-left" viewBox="0 0 32 32">
<path fill="none" opacity="0.6" stroke="#ebebeb" style="stroke: var(--color1, #ebebeb)" stroke-linejoin="round" stroke-linecap="round" stroke-miterlimit="4" stroke-width="5.8182" d="M29.091 16h-26.182M2.909 16l11.782 11.636M2.909 16l11.782-11.636"></path>
</symbol>
<symbol id="icon-user" viewBox="0 0 30 32">
<path fill="#fff" style="fill: var(--color2, #fff)" opacity="0.4" d="M25.425 26.815c2.875-2.709 4.67-6.552 4.67-10.815 0-8.205-6.652-14.857-14.857-14.857s-14.857 6.652-14.857 14.857c0 4.262 1.795 8.105 4.67 10.815 2.66 2.506 6.244 4.043 10.187 4.043s7.527-1.536 10.187-4.043zM6.316 24.857c2.094-2.613 5.313-4.285 8.922-4.285s6.827 1.673 8.922 4.285c-2.277 2.294-5.434 3.715-8.922 3.715s-6.644-1.421-8.922-3.715zM20.952 11.429c0 3.156-2.558 5.714-5.714 5.714s-5.714-2.558-5.714-5.714 2.558-5.714 5.714-5.714c3.156 0 5.714 2.558 5.714 5.714z"></path>
</symbol>
<symbol id="icon-pass" viewBox="0 0 34 32">
<path fill="#fff" style="fill: var(--color2, #fff)" opacity="0.4" d="M22.476 0c5.681 0 10.286 4.605 10.286 10.286s-4.605 10.286-10.286 10.286c-0.6 0-1.189-0.052-1.762-0.151-0.593-0.102-1.091 0.049-1.38 0.337l-4.050 4.050c-0.214 0.214-0.505 0.335-0.808 0.335h-2.286v2.286c0 0.631-0.512 1.143-1.143 1.143h-2.286v2.286c0 0.631-0.512 1.143-1.143 1.143h-5.714c-0.631 0-1.143-0.512-1.143-1.143v-4.294c0-1.212 0.482-2.375 1.339-3.232l9.903-9.903c0.288-0.288 0.439-0.787 0.337-1.379-0.099-0.573-0.151-1.162-0.151-1.762 0-5.681 4.605-10.286 10.286-10.286zM22.476 4.571c-0.631 0-1.143 0.512-1.143 1.143s0.512 1.143 1.143 1.143c1.893 0 3.429 1.535 3.429 3.429 0 0.631 0.512 1.143 1.143 1.143s1.143-0.512 1.143-1.143c0-3.156-2.558-5.714-5.714-5.714z"></path>
</symbol>
<symbol id="icon-tick" viewBox="0 0 36 32">
<path fill="#ebebeb" style="fill: var(--color1, #ebebeb)" d="M34.805 0.409c0.837 0.669 0.998 1.924 0.361 2.803l-20.317 28c-0.333 0.459-0.839 0.745-1.387 0.783s-1.086-0.173-1.475-0.581l-11.429-12c-0.744-0.781-0.744-2.047 0-2.828s1.95-0.781 2.694 0l9.887 10.382 18.997-26.18c0.638-0.879 1.833-1.048 2.669-0.379z"></path>
</symbol>
<symbol id="icon-arrow-right" viewBox="0 0 39 32">
<path fill="#fff" style="fill: var(--color2, #fff)" d="M2.938 15.382c0-1.473 1.194-2.667 2.667-2.667h23.602l-7.672-6.967c-1.062-1.021-1.095-2.709-0.074-3.771s2.709-1.095 3.77-0.074l12.444 11.556c0.523 0.503 0.819 1.197 0.819 1.922s-0.295 1.419-0.819 1.922l-12.444 11.556c-1.062 1.021-2.75 0.988-3.77-0.074s-0.988-2.75 0.074-3.771l7.672-6.967h-23.602c-1.473 0-2.667-1.194-2.667-2.667z"></path>
</symbol>
<symbol id="icon-email" viewBox="0 0 31 32">
<path fill="#fff" style="fill: var(--color2, #fff)" opacity="0.4" d="M1.92 11.736v10.984c0 2.121 1.719 3.84 3.84 3.84h19.2c2.121 0 3.84-1.719 3.84-3.84v-10.984l-11.427 7.032c-1.234 0.759-2.791 0.759-4.025 0l-11.427-7.032z"></path>
<path fill="#fff" style="fill: var(--color2, #fff)" opacity="0.4" d="M28.8 9.482v-0.202c0-2.121-1.719-3.84-3.84-3.84h-19.2c-2.121 0-3.84 1.719-3.84 3.84v0.202l12.434 7.652c0.617 0.38 1.395 0.38 2.012 0l12.434-7.652z"></path>
</symbol>
<symbol id="icon-thunder" viewBox="0 0 26 32">
<path fill="#ebebeb" style="fill: var(--color1, #ebebeb)" d="M16.163 3.051c0.107-0.532-0.136-1.074-0.592-1.321s-1.012-0.136-1.354 0.269l-12.8 15.2c-0.297 0.353-0.371 0.858-0.189 1.29s0.586 0.71 1.031 0.71h9.897l-1.966 9.749c-0.107 0.532 0.136 1.074 0.592 1.321s1.012 0.136 1.354-0.269l12.8-15.2c0.297-0.353 0.371-0.858 0.189-1.29s-0.586-0.71-1.031-0.71h-9.897l1.966-9.749z"></path>
</symbol>
<symbol id="icon-x" viewBox="0 0 28 32">
<path fill="#fff" style="fill: var(--color2, #fff)" opacity="0.4" d="M16.804 13.55l10.511-13.55h-2.491l-9.127 11.765-7.29-11.765h-8.408l11.023 17.791-11.023 14.209h2.491l9.638-12.424 7.698 12.424h8.408l-11.431-18.45zM13.392 17.948l-10.004-15.868h3.826l17.611 27.936h-3.826l-7.607-12.067z"></path>
</symbol>
<symbol id="icon-instagram" viewBox="0 0 32 32">
<path fill="#fff" style="fill: var(--color2, #fff)" opacity="0.4" d="M9.373 0.112c-1.702 0.080-2.865 0.352-3.881 0.751-1.052 0.41-1.943 0.96-2.83 1.85s-1.433 1.782-1.84 2.836c-0.394 1.019-0.661 2.182-0.736 3.885s-0.092 2.251-0.084 6.596c0.008 4.345 0.028 4.89 0.11 6.596 0.081 1.702 0.352 2.864 0.751 3.881 0.411 1.052 0.96 1.943 1.851 2.831s1.782 1.432 2.838 1.84c1.018 0.393 2.181 0.661 3.884 0.736s2.251 0.092 6.595 0.084c4.344-0.008 4.89-0.028 6.597-0.109s2.863-0.354 3.88-0.751c1.052-0.411 1.944-0.96 2.831-1.851s1.433-1.784 1.839-2.838c0.394-1.018 0.662-2.181 0.736-3.883 0.075-1.708 0.092-2.253 0.084-6.598s-0.028-4.889-0.109-6.595c-0.081-1.706-0.352-2.865-0.751-3.882-0.411-1.052-0.96-1.942-1.85-2.83s-1.784-1.434-2.837-1.839c-1.018-0.394-2.181-0.662-3.885-0.736s-2.251-0.092-6.596-0.084c-4.345 0.008-4.889 0.027-6.596 0.11zM9.56 29.036c-1.56-0.068-2.407-0.327-2.972-0.544-0.748-0.288-1.28-0.636-1.843-1.193s-0.908-1.092-1.2-1.837c-0.219-0.565-0.483-1.411-0.556-2.971-0.079-1.686-0.096-2.192-0.105-6.464s0.007-4.777 0.081-6.464c0.067-1.559 0.327-2.407 0.544-2.971 0.288-0.748 0.635-1.28 1.193-1.842s1.091-0.908 1.838-1.2c0.564-0.22 1.41-0.482 2.969-0.556 1.687-0.080 2.193-0.096 6.464-0.105s4.778 0.007 6.466 0.081c1.559 0.068 2.407 0.326 2.971 0.544 0.748 0.288 1.28 0.634 1.842 1.193s0.909 1.090 1.201 1.838c0.22 0.562 0.482 1.408 0.556 2.968 0.080 1.687 0.099 2.193 0.106 6.464s-0.007 4.778-0.081 6.464c-0.068 1.56-0.327 2.407-0.544 2.972-0.288 0.747-0.635 1.28-1.194 1.842s-1.091 0.908-1.838 1.2c-0.563 0.22-1.41 0.482-2.968 0.556-1.687 0.079-2.193 0.096-6.466 0.105s-4.777-0.008-6.464-0.081zM22.604 7.449c0.001 0.38 0.114 0.751 0.325 1.066s0.512 0.561 0.863 0.706c0.351 0.145 0.737 0.182 1.109 0.107s0.714-0.258 0.982-0.527c0.268-0.269 0.45-0.612 0.524-0.984s0.035-0.759-0.111-1.109c-0.146-0.351-0.393-0.65-0.709-0.86s-0.688-0.322-1.067-0.322c-0.509 0.001-0.997 0.204-1.356 0.565s-0.561 0.849-0.56 1.358zM7.785 16.016c0.009 4.538 3.694 8.208 8.231 8.199s8.209-3.693 8.201-8.231c-0.009-4.538-3.695-8.209-8.232-8.2s-8.208 3.695-8.199 8.232zM10.666 16.011c-0.002-1.055 0.309-2.087 0.893-2.965s1.416-1.563 2.39-1.969c0.974-0.406 2.046-0.513 3.081-0.31s1.986 0.71 2.734 1.454c0.747 0.744 1.257 1.694 1.465 2.728s0.104 2.107-0.297 3.082c-0.402 0.975-1.084 1.81-1.96 2.398s-1.907 0.903-2.961 0.905c-0.7 0.002-1.394-0.135-2.042-0.402s-1.236-0.658-1.733-1.153c-0.496-0.494-0.89-1.081-1.16-1.728s-0.409-1.34-0.41-2.040z"></path>
</symbol>
<symbol id="icon-facebook" viewBox="0 0 32 32">
<path fill="#fff" style="fill: var(--color2, #fff)" opacity="0.4" d="M4.686 4.686c3.001-3.001 7.070-4.686 11.314-4.686s8.313 1.686 11.314 4.686 4.686 7.070 4.686 11.314c0 4.243-1.686 8.313-4.686 11.314s-7.070 4.686-11.314 4.686c0.737 0 1.456-0.067 2.166-0.163v-11.596h4.141l0.65-4.206h-4.792v-2.299c0-1.747 0.571-3.297 2.205-3.297h2.627v-3.671l-0.025-0.003c-0.471-0.064-1.445-0.195-3.257-0.195-3.851 0-6.109 2.034-6.109 6.667v2.798h-3.959v4.206h3.959v11.561c0.784 0.118 1.578 0.198 2.393 0.198-4.243 0-8.313-1.686-11.314-4.686s-4.686-7.070-4.686-11.314c0-4.243 1.686-8.313 4.686-11.314z"></path>
</symbol>
<symbol id="icon-youtube" viewBox="0 0 43 32">
<path fill="#fff" style="fill: var(--color2, #fff)" opacity="0.4" d="M36.98 30.321c-3.373 0.515-8.996 1.133-15.333 1.133-6.236 0-11.858-0.618-15.333-1.133-2.147-0.309-3.884-1.958-4.293-4.121-0.409-2.37-0.818-5.873-0.818-10.2s0.409-7.83 0.818-10.2c0.409-2.164 2.147-3.812 4.293-4.121 3.373-0.515 8.996-1.133 15.333-1.133s11.858 0.618 15.333 1.133c2.147 0.309 3.884 1.958 4.293 4.121 0.409 2.37 0.92 5.873 0.92 10.2-0.102 4.327-0.511 7.83-0.92 10.2-0.409 2.164-2.147 3.812-4.293 4.121zM29.825 16l-12.267-7.212v14.424l12.267-7.212z"></path>
</symbol>
<symbol id="icon-google" viewBox="0 0 32 32">
<path fill="#4285f4" style="fill: var(--color3, #4285f4)" d="M31.057 16.206c0-1.124-0.101-2.204-0.288-3.241h-14.924v6.129h8.528c-0.367 1.981-1.484 3.659-3.162 4.783v3.976h5.121c2.996-2.758 4.725-6.821 4.725-11.646z"></path>
<path fill="#34a853" style="fill: var(--color4, #34a853)" d="M15.845 31.691c4.278 0 7.865-1.419 10.487-3.839l-5.121-3.976c-1.419 0.951-3.234 1.512-5.366 1.512-4.127 0-7.62-2.787-8.866-6.533h-5.294v4.105c2.607 5.179 7.966 8.729 14.16 8.729z"></path>
<path fill="#fbbc04" style="fill: var(--color5, #fbbc04)" d="M6.979 18.856c-0.317-0.951-0.497-1.966-0.497-3.011s0.18-2.060 0.497-3.011v-4.105h-5.294c-1.073 2.139-1.685 4.559-1.685 7.116s0.612 4.977 1.685 7.116l5.294-4.105z"></path>
<path fill="#e94235" style="fill: var(--color6, #e94235)" d="M15.845 6.302c2.326 0 4.415 0.799 6.057 2.37l4.545-4.545c-2.744-2.557-6.331-4.127-10.602-4.127-6.194 0-11.553 3.551-14.16 8.729l5.294 4.105c1.246-3.745 4.739-6.533 8.866-6.533z"></path>
</symbol>
<symbol id="icon-logo" viewBox="0 0 76 32">
<path fill="#1ca66f" style="fill: var(--color7, #1ca66f)" d="M47.302 25.075c-8.63-10.511-21.707-8.167-25.418-3.453-1.992 3.579-5.84 6.054-10.223 6.054-6.44 0-11.661-5.227-11.661-11.676s5.221-11.676 11.661-11.676c4.383 0 8.231 2.475 10.223 6.054 3.711 4.714 16.788 7.058 25.418-3.453 0.262-0.38 0.539-0.748 0.832-1.103 0.709-0.861 1.507-1.646 2.379-2.342 1.129-0.901 2.383-1.652 3.732-2.224 1.912-0.81 4.014-1.257 6.22-1.257 8.825 0 15.98 7.163 15.98 16s-7.154 16-15.98 16c-2.206 0-4.308-0.448-6.22-1.257-1.349-0.571-2.603-1.322-3.732-2.223-0.872-0.696-1.669-1.481-2.379-2.342-0.293-0.355-0.57-0.723-0.832-1.103z"></path>
</symbol>
</defs>
</svg>
