<svg width="20" height="21" viewBox="0 0 20 21" fill="none" xmlns="http://www.w3.org/2000/svg">
<path fill-rule="evenodd" clip-rule="evenodd" d="M16.6854 17.5971C18.5721 15.8191 19.75 13.2971 19.75 10.5C19.75 5.11522 15.3848 0.75 10 0.75C4.61522 0.75 0.25 5.11522 0.25 10.5C0.25 13.2971 1.42785 15.8191 3.31463 17.5971C5.06012 19.2419 7.41234 20.25 10 20.25C12.5877 20.25 14.9399 19.2419 16.6854 17.5971ZM4.14512 16.3123C5.51961 14.5978 7.63161 13.5 10 13.5C12.3684 13.5 14.4804 14.5978 15.8549 16.3123C14.3603 17.8178 12.289 18.75 10 18.75C7.711 18.75 5.63973 17.8178 4.14512 16.3123ZM13.75 7.5C13.75 9.57107 12.0711 11.25 10 11.25C7.92893 11.25 6.25 9.57107 6.25 7.5C6.25 5.42893 7.92893 3.75 10 3.75C12.0711 3.75 13.75 5.42893 13.75 7.5Z" fill="white" fill-opacity="0.4"/>
</svg>
